<svg width="166" height="31" viewBox="0 0 166 31" fill="none" xmlns="http://www.w3.org/2000/svg">
<path d="M34.08 9.12L26.16 30H24.28L17.24 11.88L10.16 30H8.32L0.4 9.12H2.32L9.28 27.76L16.4 9.12H18.12L25.2 27.72L32.24 9.12H34.08ZM55.7863 20.04H37.8263C37.8796 21.6667 38.2929 23.12 39.0663 24.4C39.8396 25.6533 40.8796 26.6267 42.1863 27.32C43.5196 28.0133 45.0129 28.36 46.6663 28.36C48.0263 28.36 49.2796 28.12 50.4263 27.64C51.5996 27.1333 52.5729 26.4 53.3463 25.44L54.5063 26.76C53.5996 27.8533 52.4529 28.6933 51.0663 29.28C49.7063 29.8667 48.2263 30.16 46.6263 30.16C44.5463 30.16 42.6929 29.7067 41.0663 28.8C39.4396 27.8933 38.1596 26.64 37.2263 25.04C36.3196 23.44 35.8663 21.6133 35.8663 19.56C35.8663 17.5333 36.2929 15.72 37.1463 14.12C38.0263 12.4933 39.2263 11.2267 40.7463 10.32C42.2663 9.41333 43.9729 8.96 45.8663 8.96C47.7596 8.96 49.4529 9.41333 50.9463 10.32C52.4663 11.2 53.6529 12.44 54.5063 14.04C55.3863 15.64 55.8263 17.4533 55.8263 19.48L55.7863 20.04ZM45.8663 10.72C44.3996 10.72 43.0796 11.0533 41.9063 11.72C40.7329 12.36 39.7863 13.28 39.0663 14.48C38.3729 15.6533 37.9729 16.9867 37.8663 18.48H53.8663C53.7863 16.9867 53.3863 15.6533 52.6663 14.48C51.9463 13.3067 50.9996 12.3867 49.8263 11.72C48.6529 11.0533 47.3329 10.72 45.8663 10.72ZM61.7734 30.16C61.3201 30.16 60.9201 30 60.5734 29.68C60.2534 29.3333 60.0934 28.92 60.0934 28.44C60.0934 27.96 60.2534 27.56 60.5734 27.24C60.9201 26.92 61.3201 26.76 61.7734 26.76C62.2268 26.76 62.6134 26.92 62.9334 27.24C63.2801 27.56 63.4534 27.96 63.4534 28.44C63.4534 28.92 63.2801 29.3333 62.9334 29.68C62.6134 30 62.2268 30.16 61.7734 30.16ZM80.5013 8.96C82.4479 8.96 84.2079 9.41333 85.7812 10.32C87.3546 11.2 88.5813 12.4533 89.4613 14.08C90.3679 15.68 90.8213 17.5067 90.8213 19.56C90.8213 21.6133 90.3679 23.44 89.4613 25.04C88.5813 26.64 87.3546 27.8933 85.7812 28.8C84.2079 29.7067 82.4479 30.16 80.5013 30.16C78.6346 30.16 76.9413 29.72 75.4213 28.84C73.9279 27.9333 72.7679 26.68 71.9413 25.08V30H70.0213V0.319998H72.0213V13.88C72.8479 12.3333 74.0079 11.1333 75.5013 10.28C76.9946 9.4 78.6613 8.96 80.5013 8.96ZM80.3813 28.36C81.9813 28.36 83.4213 27.9867 84.7013 27.24C85.9813 26.4933 86.9813 25.4533 87.7013 24.12C88.4479 22.7867 88.8213 21.2667 88.8213 19.56C88.8213 17.8533 88.4479 16.3333 87.7013 15C86.9813 13.6667 85.9813 12.6267 84.7013 11.88C83.4213 11.1333 81.9813 10.76 80.3813 10.76C78.7813 10.76 77.3413 11.1333 76.0612 11.88C74.8079 12.6267 73.8079 13.6667 73.0613 15C72.3413 16.3333 71.9813 17.8533 71.9813 19.56C71.9813 21.2667 72.3413 22.7867 73.0613 24.12C73.8079 25.4533 74.8079 26.4933 76.0612 27.24C77.3413 27.9867 78.7813 28.36 80.3813 28.36ZM105.173 30.16C103.2 30.16 101.413 29.7067 99.8134 28.8C98.2401 27.8933 97.0001 26.64 96.0934 25.04C95.1868 23.4133 94.7334 21.5867 94.7334 19.56C94.7334 17.5333 95.1868 15.72 96.0934 14.12C97.0001 12.4933 98.2401 11.2267 99.8134 10.32C101.413 9.41333 103.2 8.96 105.173 8.96C107.147 8.96 108.92 9.41333 110.493 10.32C112.093 11.2267 113.347 12.4933 114.253 14.12C115.16 15.72 115.613 17.5333 115.613 19.56C115.613 21.5867 115.16 23.4133 114.253 25.04C113.347 26.64 112.093 27.8933 110.493 28.8C108.92 29.7067 107.147 30.16 105.173 30.16ZM105.173 28.36C106.773 28.36 108.2 27.9867 109.453 27.24C110.733 26.4933 111.733 25.4533 112.453 24.12C113.2 22.7867 113.573 21.2667 113.573 19.56C113.573 17.8533 113.2 16.3333 112.453 15C111.733 13.6667 110.733 12.6267 109.453 11.88C108.2 11.1333 106.773 10.76 105.173 10.76C103.573 10.76 102.133 11.1333 100.853 11.88C99.6001 12.6267 98.6001 13.6667 97.8534 15C97.1334 16.3333 96.7734 17.8533 96.7734 19.56C96.7734 21.2667 97.1334 22.7867 97.8534 24.12C98.6001 25.4533 99.6001 26.4933 100.853 27.24C102.133 27.9867 103.573 28.36 105.173 28.36ZM129.978 30.16C128.005 30.16 126.218 29.7067 124.618 28.8C123.045 27.8933 121.805 26.64 120.898 25.04C119.991 23.4133 119.538 21.5867 119.538 19.56C119.538 17.5333 119.991 15.72 120.898 14.12C121.805 12.4933 123.045 11.2267 124.618 10.32C126.218 9.41333 128.005 8.96 129.978 8.96C131.951 8.96 133.725 9.41333 135.298 10.32C136.898 11.2267 138.151 12.4933 139.058 14.12C139.965 15.72 140.418 17.5333 140.418 19.56C140.418 21.5867 139.965 23.4133 139.058 25.04C138.151 26.64 136.898 27.8933 135.298 28.8C133.725 29.7067 131.951 30.16 129.978 30.16ZM129.978 28.36C131.578 28.36 133.005 27.9867 134.258 27.24C135.538 26.4933 136.538 25.4533 137.258 24.12C138.005 22.7867 138.378 21.2667 138.378 19.56C138.378 17.8533 138.005 16.3333 137.258 15C136.538 13.6667 135.538 12.6267 134.258 11.88C133.005 11.1333 131.578 10.76 129.978 10.76C128.378 10.76 126.938 11.1333 125.658 11.88C124.405 12.6267 123.405 13.6667 122.658 15C121.938 16.3333 121.578 17.8533 121.578 19.56C121.578 21.2667 121.938 22.7867 122.658 24.12C123.405 25.4533 124.405 26.4933 125.658 27.24C126.938 27.9867 128.378 28.36 129.978 28.36ZM154.063 18.84L148.623 23.8V30H146.623V0.319998H148.623V21.32L161.983 9.12H164.543L155.543 17.56L165.423 30H162.943L154.063 18.84Z" fill="white"/>
</svg>
