<svg viewBox="0 0 28 28" fill="none" xmlns="http://www.w3.org/2000/svg">
<g clip-path="url(#clip0_235_828)">
<path d="M18.1016 8.20312C18.1016 9.10755 18.8378 9.84375 19.7422 9.84375H24.6193C24.5308 8.68919 24.2629 7.58581 23.8346 6.5625H19.7422C18.8378 6.5625 18.1016 7.2987 18.1016 8.20312ZM7.4375 28H17.2813C17.7347 28 18.1016 27.6331 18.1016 27.1797V22.9688H19.7422V17.6367L11.5396 11.4844H4.15625C3.70284 11.4844 3.33594 11.8513 3.33594 12.3047C3.33594 15.2102 4.52714 17.9932 6.61719 19.9999V27.1797C6.61719 27.6331 6.98409 28 7.4375 28Z" fill="black"/>
<path d="M14 0C13.5466 0 13.1797 0.366898 13.1797 0.820312V1.64062H9.74734C9.40756 0.687859 8.50555 0 7.4375 0C6.08048 0 4.97656 1.10392 4.97656 2.46094C4.97656 3.81795 6.08048 4.92188 7.4375 4.92188C8.50555 4.92188 9.40756 4.23402 9.74734 3.28125H13.1797V6.5625H4.82546C4.48569 5.60973 3.58367 4.92188 2.51563 4.92188C1.15861 4.92188 0 6.0258 0 7.38281C0 8.73983 1.15861 9.84375 2.51563 9.84375C3.58367 9.84375 4.48569 9.15589 4.82546 8.20312H13.1797V10.6644L21.0544 16.5705C21.1563 16.6468 21.2391 16.7458 21.2961 16.8597C21.3531 16.9736 21.3828 17.0992 21.3828 17.2266V22.9688H22.2031C23.5601 22.9688 24.6641 21.8648 24.6641 20.5078V16.4062H27.1797C27.4825 16.4062 27.7605 16.2396 27.9031 15.9729C27.973 15.8419 28.0061 15.6945 27.9989 15.5462C27.9917 15.398 27.9445 15.2544 27.8622 15.1309L25.3765 11.4844H19.7422C17.9325 11.4844 16.4609 10.0128 16.4609 8.20312C16.4609 6.39346 17.9325 4.92188 19.7422 4.92188H22.9691C21.071 1.96755 17.765 0 14 0Z" fill="black"/>
</g>
<defs>
<clipPath id="clip0_235_828">
<rect width="28" height="28" fill="white"/>
</clipPath>
</defs>
</svg>
