<svg viewBox="0 0 28 28" fill="none" xmlns="http://www.w3.org/2000/svg">
<path d="M7.79102 17.4123L13.1795 20.5232V14.3011L7.79102 11.1899V17.4123ZM8.61133 9.76905L13.9999 12.8803L19.3884 9.76905L13.9999 6.6582L8.61133 9.76905Z" fill="black"/>
<path d="M25.9698 6.43721L14.8202 0V5.23726L21.4392 9.05849C21.5639 9.13049 21.6674 9.23405 21.7394 9.35876C21.8114 9.48347 21.8493 9.62494 21.8493 9.76894V17.4122L26.385 20.0307V7.15635C26.385 7.01058 26.3467 6.86738 26.2738 6.74114C26.2009 6.6149 26.0961 6.51008 25.9698 6.43721ZM14.41 22.6544C14.2853 22.7264 14.1439 22.7643 13.9999 22.7643C13.8559 22.7643 13.7144 22.7264 13.5897 22.6544L6.97068 18.8331L2.435 21.4515L13.5847 27.8887C13.7109 27.9616 13.8541 28 13.9999 28C14.1457 28 14.2889 27.9616 14.4151 27.8887L25.5648 21.4515L21.0291 18.8331L14.41 22.6544ZM6.15042 9.76894C6.15042 9.62494 6.18833 9.48348 6.26032 9.35877C6.33232 9.23406 6.43587 9.1305 6.56057 9.05849L13.1796 5.23726V0L2.02993 6.43721C1.9037 6.51009 1.79887 6.61492 1.72599 6.74116C1.65311 6.86739 1.61474 7.01059 1.61475 7.15635V20.0307L6.15042 17.4123V9.76894Z" fill="black"/>
<path d="M20.2088 17.4124V11.1899L14.8203 14.3011V20.5232L20.2088 17.4124Z" fill="black"/>
</svg>
