<svg viewBox="0 0 28 28" fill="none" xmlns="http://www.w3.org/2000/svg">
<g clip-path="url(#clip0_235_782)">
<path d="M0.782 16.0236L2.60918 16.3231C2.89787 17.7222 3.45032 19.0536 4.23703 20.2461L3.15498 21.7562C3.04568 21.905 2.98753 22.0853 2.98924 22.2699C2.99096 22.4545 3.05244 22.6336 3.16449 22.7804C3.43734 23.1139 3.72723 23.4331 4.033 23.7367C4.34147 24.0457 4.65945 24.3304 4.98694 24.6057C5.13379 24.7179 5.31309 24.7796 5.49793 24.7813C5.68277 24.783 5.86318 24.7247 6.01208 24.6152L7.52128 23.5326C8.71258 24.3198 10.043 24.8726 11.4414 25.1614L11.7404 26.99C11.7681 27.1721 11.8545 27.3401 11.9864 27.4686C12.1183 27.5971 12.2886 27.679 12.4713 27.7019C12.7313 27.7314 12.9933 27.7494 13.261 27.7627C13.3253 27.7658 13.3896 27.7559 13.4501 27.7336C13.5105 27.7113 13.5657 27.6769 13.6125 27.6327C13.6594 27.5884 13.6967 27.5352 13.7225 27.4761C13.7482 27.4171 13.7617 27.3535 13.7622 27.289V23.4857C13.7615 23.3623 13.7131 23.244 13.6271 23.1555C13.5411 23.067 13.4242 23.0152 13.3009 23.0111C8.5049 22.7624 4.74374 18.8013 4.74374 13.9988C4.74374 9.19642 8.5049 5.23523 13.3009 4.98661C13.4242 4.98243 13.5411 4.93068 13.6271 4.8422C13.7131 4.75372 13.7615 4.63539 13.7622 4.512V0.71194C13.7618 0.647561 13.7485 0.583912 13.7229 0.524819C13.6974 0.465727 13.6602 0.412412 13.6135 0.368079C13.5668 0.323746 13.5116 0.28931 13.4513 0.266842C13.391 0.244373 13.3267 0.234337 13.2624 0.237334C12.9982 0.248242 12.7343 0.266914 12.4712 0.293324C12.2884 0.318242 12.1184 0.401553 11.9867 0.530852C11.8551 0.660152 11.7686 0.828526 11.7404 1.01091L11.4414 2.83951C10.043 3.12873 8.71262 3.68168 7.52124 4.46878L6.01203 3.38577C5.86314 3.27623 5.68273 3.21793 5.49788 3.21965C5.31304 3.22136 5.13374 3.28299 4.9869 3.39528C4.65431 3.66849 4.33592 3.95852 4.03296 4.26425C3.72489 4.56565 3.43489 4.88497 3.16444 5.22054C3.05194 5.36746 2.99018 5.54694 2.98847 5.73198C2.98675 5.91702 3.04517 6.09761 3.15494 6.24659L4.23698 7.75676C3.45045 8.94881 2.898 10.2797 2.60914 11.6783L0.781954 11.9773C0.599862 12.0051 0.431818 12.0916 0.303336 12.2236C0.174854 12.3556 0.092953 12.5259 0.0700678 12.7087C-0.0233559 13.5604 -0.0233559 14.4197 0.0700678 15.2714C0.0906105 15.4573 0.171266 15.6313 0.299771 15.767C0.428276 15.9028 0.597601 15.9929 0.782 16.0236Z" fill="black"/>
<path d="M13.3085 6.89587C9.55907 7.13338 6.63965 10.2436 6.63965 14.0005C6.63965 17.7574 9.55912 20.8676 13.3085 21.1051C13.3675 21.1076 13.4264 21.098 13.4817 21.077C13.5369 21.056 13.5873 21.0239 13.6297 20.9828C13.6721 20.9417 13.7058 20.8924 13.7285 20.8378C13.7513 20.7833 13.7628 20.7247 13.7622 20.6656V7.33534C13.7628 7.27625 13.7513 7.21766 13.7285 7.16314C13.7058 7.10861 13.6721 7.05929 13.6297 7.01818C13.5873 6.97707 13.5369 6.94502 13.4817 6.92399C13.4264 6.90297 13.3675 6.8934 13.3085 6.89587ZM17.0843 7.35624H14.7114V8.3054H17.0843C17.8697 8.30306 18.5058 7.66701 18.5081 6.88163V3.94677C19.1619 3.71565 19.554 3.04712 19.4368 2.36366C19.3195 1.68021 18.727 1.18066 18.0335 1.18066C17.3401 1.18066 16.7475 1.68021 16.6302 2.36366C16.5129 3.04712 16.9051 3.71565 17.5589 3.94677V6.88163C17.5589 7.14376 17.3464 7.35624 17.0843 7.35624ZM14.7113 10.2038H19.4573C19.7194 10.2038 19.9319 9.9913 19.9319 9.72917C19.9319 9.46704 19.7194 9.25457 19.4573 9.25457H14.7113V10.2038ZM14.7113 20.6447H17.0843C17.3464 20.6447 17.5589 20.8572 17.5589 21.1193V24.0542C16.9051 24.2853 16.5129 24.9539 16.6302 25.6373C16.7475 26.3208 17.34 26.8203 18.0335 26.8203C18.7269 26.8203 19.3195 26.3208 19.4368 25.6373C19.554 24.9539 19.1619 24.2853 18.5081 24.0542V21.1193C18.5058 20.334 17.8697 19.6979 17.0843 19.6956H14.7114V20.6447H14.7113ZM21.8302 15.8989H14.7113V16.848H21.8302C22.0923 16.848 22.3048 17.0605 22.3048 17.3226V19.7829C21.651 20.0141 21.2589 20.6826 21.3761 21.366C21.4934 22.0495 22.0859 22.549 22.7794 22.549C23.4728 22.549 24.0654 22.0495 24.1827 21.366C24.3 20.6826 23.9078 20.0141 23.254 19.7829V17.3226C23.2516 16.5373 22.6156 15.9012 21.8302 15.8989ZM26.5761 12.5767C26.2827 12.5779 25.9968 12.6698 25.7576 12.8397C25.5184 13.0096 25.3375 13.2492 25.2397 13.5259H14.7113V14.475H25.2397C25.4822 15.1559 26.197 15.5463 26.901 15.3825C27.6049 15.2186 28.0738 14.5526 27.9906 13.8346C27.9075 13.1167 27.2989 12.5754 26.5761 12.5767Z" fill="black"/>
<path d="M19.9315 18.2717C19.9315 18.0096 19.719 17.7971 19.4569 17.7971H14.711V18.7463H19.4569C19.719 18.7463 19.9315 18.5339 19.9315 18.2717ZM23.2536 10.6783V8.21801C23.9074 7.98689 24.2996 7.31836 24.1823 6.6349C24.065 5.95145 23.4725 5.4519 22.779 5.4519C22.0856 5.4519 21.493 5.95145 21.3757 6.6349C21.2585 7.31836 21.6506 7.98689 22.3044 8.21801V10.6783C22.3044 10.9404 22.0919 11.1529 21.8298 11.1529H14.7109V12.1021H21.8298C22.6152 12.0997 23.2513 11.4636 23.2536 10.6783Z" fill="black"/>
</g>
<defs>
<clipPath id="clip0_235_782">
<rect width="28" height="28" fill="white"/>
</clipPath>
</defs>
</svg>
