<svg viewBox="0 0 28 28" fill="none" xmlns="http://www.w3.org/2000/svg">
<path d="M4.15625 9.89844C4.89752 9.89904 5.62506 9.69849 6.26132 9.31814C6.89757 8.9378 7.41869 8.39193 7.76912 7.73872C8.13684 7.05699 8.94676 6.61719 9.83276 6.61719H11.6047C12.4907 6.61719 13.3007 7.05699 13.6676 7.7379C14.3845 9.07091 15.7688 9.89844 17.2812 9.89844C19.5427 9.89844 21.3828 8.05837 21.3828 5.79688C21.3828 3.53538 19.5427 1.69531 17.2812 1.69531C16.54 1.69471 15.8124 1.89527 15.1762 2.27561C14.5399 2.65595 14.0188 3.20182 13.6684 3.85503C13.3007 4.53677 12.4907 4.97656 11.6047 4.97656H9.83276C8.94676 4.97656 8.13684 4.53677 7.76995 3.85585C7.05299 2.52285 5.66869 1.69531 4.15625 1.69531C1.89476 1.69531 0 3.53538 0 5.79688C0 8.05837 1.89476 9.89844 4.15625 9.89844ZM16.4609 4.97656H18.1016V6.61719H16.4609V4.97656ZM4.15625 26.3047C4.89752 26.3053 5.62506 26.1047 6.26132 25.7244C6.89757 25.344 7.41869 24.7982 7.76912 24.145C8.13684 23.4632 8.94676 23.0234 9.83276 23.0234H11.6047C12.4907 23.0234 13.3007 23.4632 13.6676 24.1441C14.3845 25.4772 15.7688 26.3047 17.2812 26.3047C19.5427 26.3047 21.3828 24.4646 21.3828 22.2031C21.3828 19.9416 19.5427 18.1016 17.2812 18.1016C16.54 18.101 15.8124 18.3015 15.1762 18.6819C14.5399 19.0622 14.0188 19.6081 13.6684 20.2613C13.3007 20.943 12.4907 21.3828 11.6047 21.3828H9.83276C8.94676 21.3828 8.13684 20.943 7.76995 20.2621C7.05299 18.9291 5.66869 18.1016 4.15625 18.1016C1.89476 18.1016 0 19.9416 0 22.2031C0 24.4646 1.89476 26.3047 4.15625 26.3047ZM16.4609 21.3828H18.1016V23.0234H16.4609V21.3828Z" fill="black"/>
<path d="M20.2309 12.0582C19.8632 12.7399 19.0532 13.1797 18.1672 13.1797H16.3953C15.5093 13.1797 14.6993 12.7399 14.3324 12.059C13.6155 10.726 12.2312 9.89844 10.7188 9.89844C8.45726 9.89844 6.61719 11.7385 6.61719 14C6.61719 16.2615 8.45726 18.1016 10.7188 18.1016C11.46 18.1022 12.1876 17.9016 12.8238 17.5213C13.4601 17.1409 13.9812 16.5951 14.3316 15.9418C14.6993 15.2601 15.5093 14.8203 16.3953 14.8203H18.1672C19.0532 14.8203 19.8632 15.2601 20.2301 15.941C20.947 17.274 22.3313 18.1016 23.8438 18.1016C26.1052 18.1016 28 16.2615 28 14C28 11.7385 26.1052 9.89844 23.8438 9.89844C23.1025 9.89783 22.3749 10.0984 21.7387 10.4787C21.1024 10.8591 20.5813 11.405 20.2309 12.0582ZM11.5391 14.8203H9.89844V13.1797H11.5391V14.8203Z" fill="black"/>
</svg>
