<svg viewBox="0 0 66 110" fill="none" xmlns="http://www.w3.org/2000/svg">
<path opacity="0.5" d="M28.2857 96.8054C22.449 96.6259 17.2408 96.0873 12.6612 95.1897C8.08163 94.2024 3.90612 92.856 0.134694 91.1506V73.7821C3.81633 75.5773 8.26122 77.2379 13.4694 78.7638C18.6775 80.1999 23.6163 81.0526 28.2857 81.3219V60.9914C23.0776 58.927 18.6327 56.9523 14.951 55.0673C11.3592 53.1824 8.44082 51.2077 6.19592 49.1432C4.04082 46.989 2.46939 44.6552 1.48163 42.142C0.493877 39.539 0 36.5769 0 33.2558C0 28.7678 1.16735 24.9082 3.50204 21.6769C5.92653 18.3558 9.24898 15.7079 13.4694 13.7332C17.7796 11.7585 22.7184 10.5467 28.2857 10.0979V0H37.3102V9.82864C42.3388 10.0082 47.0531 10.5916 51.4531 11.5789C55.9429 12.5663 60.298 14.0024 64.5184 15.8874L58.3224 31.2362C54.7306 29.7103 51.0939 28.5435 47.4122 27.7356C43.8204 26.9278 40.4531 26.3892 37.3102 26.12V45.5079C42.1592 47.3031 46.7837 49.2778 51.1837 51.4321C55.5837 53.4965 59.1306 56.1444 61.8245 59.3758C64.6082 62.6071 66 66.8707 66 72.1665C66 78.7189 63.6204 84.1942 58.8612 88.5924C54.102 92.9906 46.9184 95.6385 37.3102 96.5361V110H28.2857V96.8054ZM37.3102 80.918C40.3633 80.3794 42.6082 79.4818 44.0449 78.2252C45.4816 76.8788 46.2 75.1734 46.2 73.1089C46.2 71.8523 45.8408 70.7752 45.1224 69.8776C44.4939 68.8902 43.5061 67.9927 42.1592 67.1848C40.902 66.2872 39.2857 65.3896 37.3102 64.492V80.918ZM28.2857 26.3892C26.4898 26.6585 24.9633 27.1073 23.7061 27.7356C22.449 28.2742 21.4612 29.0371 20.7429 30.0245C20.1143 30.9221 19.8 31.9992 19.8 33.2558C19.8 34.5124 20.0694 35.6344 20.6082 36.6218C21.2367 37.5194 22.1796 38.417 23.4367 39.3146C24.6939 40.1224 26.3102 40.9751 28.2857 41.8727V26.3892Z" fill="black"/>
</svg>
