<svg viewBox="0 0 617 181" fill="none" xmlns="http://www.w3.org/2000/svg">
<path d="M0 68.1696V0H68.1696L0 68.1696Z" fill="#F2F2F2"/>
<path d="M179.999 180.002H111.829L179.999 111.832V180.002Z" fill="#F2F2F2"/>
<path d="M34.8912 180H0V145.109L145.109 0H180V34.8912L34.8912 180Z" fill="#F2F2F2"/>
<path d="M265.212 88.722L249.57 119.544H265.278V127.2H240V119.676L255.576 88.92H240V81H265.212V88.722Z" fill="#F2F2F2"/>
<path d="M268.752 127.2V81H292.446V88.92H277.794V99.942H290.862V107.598H277.794V119.544H292.71V127.2H268.752Z" fill="#F2F2F2"/>
<path d="M317.093 127.2L304.751 101.658L304.421 101.79L304.817 109.578V127.2H296.501V81H303.167L315.311 107.532L315.641 107.4L314.915 99.282V81H323.231V127.2H317.093Z" fill="#F2F2F2"/>
<path d="M328.245 127.2V81H337.287V127.2H328.245Z" fill="#F2F2F2"/>
<path d="M349.787 88.92H339.821V81H368.729V88.92H358.763V127.2H349.787V88.92Z" fill="#F2F2F2"/>
<path d="M380.28 127.2H371.238V81H380.28V99.612H390.84V81H399.882V127.2H390.84V108.06H380.28V127.2Z" fill="#F2F2F2"/>
<path d="M404.916 127.2V81H428.61V88.92H413.958V99.942H427.026V107.598H413.958V119.544H428.874V127.2H404.916Z" fill="#F2F2F2"/>
<path d="M432.664 81H450.22C452.992 81.924 455.346 83.64 457.282 86.148C459.262 88.612 460.252 91.648 460.252 95.256C460.252 101.152 457.92 105.486 453.256 108.258L459.922 127.2H450.682L445.072 110.37H441.574V127.2H432.664V81ZM441.574 88.92V102.978H447.25C447.998 102.802 448.812 102.054 449.692 100.734C450.616 99.37 451.078 97.786 451.078 95.982C451.078 94.178 450.682 92.594 449.89 91.23C449.142 89.866 448.394 89.096 447.646 88.92H441.574Z" fill="#F2F2F2"/>
<path d="M463.7 127.2V81H487.394V88.92H472.742V99.942H485.81V107.598H472.742V119.544H487.658V127.2H463.7Z" fill="#F2F2F2"/>
<path d="M502.866 119.544H508.41C509.378 118.488 510.06 117.432 510.456 116.376C510.896 115.276 511.116 113.67 511.116 111.558V81H520.158V108.258C520.158 110.502 520.092 112.262 519.96 113.538C519.872 114.77 519.608 116.288 519.168 118.092C518.42 121.304 516.352 124.34 512.964 127.2H498.312C494.924 124.428 492.856 121.392 492.108 118.092C491.448 115.408 491.118 112.13 491.118 108.258V81H500.16V111.558C500.16 113.67 500.358 115.276 500.754 116.376C501.194 117.432 501.898 118.488 502.866 119.544Z" fill="#F2F2F2"/>
<path d="M541.698 106.08H541.434H541.698L545.196 91.626L548.034 81H556.284L559.254 127.2H550.608L549.354 101.988H549.024L544.272 120.6H538.86L534.108 101.988H533.778L532.524 127.2H523.878L526.848 81H535.098L537.936 91.626L541.434 106.08H541.698Z" fill="#F2F2F2"/>
<path d="M562.724 117.432H572.228V127.2H562.724V117.432Z" fill="#F2F2F2"/>
<path d="M596.359 127.2L594.973 119.874H584.545L583.159 127.2H574.183L583.093 81H596.755L605.203 127.2H596.359ZM589.627 89.58L587.053 104.958L585.601 112.812H593.851L592.333 104.958L589.759 89.58H589.627Z" fill="#F2F2F2"/>
<path d="M607.727 127.2V81H616.769V127.2H607.727Z" fill="#F2F2F2"/>
<path d="M242.897 173.391H240L248.379 150.322H251.231L259.609 173.391H256.713L249.894 153.971H249.716L242.897 173.391ZM243.966 164.38H255.643V166.858H243.966V164.38Z" fill="white"/>
<path d="M265.299 150.322V173.391H262.536V150.322H265.299Z" fill="white"/>
<path d="M280.682 150.322V173.391H278.052V150.322H280.682Z" fill="white"/>
<path d="M292.045 173.752C290.397 173.752 288.974 173.384 287.778 172.648C286.59 171.904 285.672 170.868 285.026 169.539C284.387 168.202 284.068 166.648 284.068 164.875C284.068 163.103 284.387 161.541 285.026 160.189C285.672 158.83 286.571 157.771 287.722 157.013C288.881 156.247 290.233 155.864 291.778 155.864C292.669 155.864 293.55 156.014 294.419 156.314C295.288 156.615 296.079 157.103 296.792 157.779C297.505 158.447 298.073 159.333 298.497 160.437C298.92 161.541 299.132 162.9 299.132 164.515V165.641H285.94V163.343H296.458C296.458 162.367 296.264 161.496 295.878 160.73C295.499 159.964 294.957 159.36 294.252 158.916C293.553 158.473 292.729 158.252 291.778 158.252C290.731 158.252 289.825 158.515 289.059 159.04C288.302 159.559 287.719 160.234 287.31 161.068C286.902 161.902 286.697 162.795 286.697 163.749V165.281C286.697 166.588 286.92 167.695 287.366 168.604C287.819 169.505 288.447 170.192 289.249 170.665C290.051 171.131 290.983 171.364 292.045 171.364C292.736 171.364 293.36 171.266 293.917 171.071C294.482 170.868 294.968 170.568 295.377 170.17C295.785 169.764 296.101 169.261 296.324 168.66L298.864 169.381C298.597 170.252 298.147 171.018 297.516 171.679C296.885 172.333 296.105 172.843 295.176 173.211C294.248 173.572 293.204 173.752 292.045 173.752Z" fill="white"/>
<path d="M307.54 173.797C306.456 173.797 305.471 173.59 304.588 173.177C303.704 172.757 303.002 172.152 302.482 171.364C301.962 170.568 301.702 169.607 301.702 168.48C301.702 167.489 301.895 166.685 302.281 166.069C302.667 165.446 303.184 164.958 303.83 164.605C304.476 164.252 305.189 163.989 305.969 163.817C306.756 163.636 307.547 163.494 308.342 163.388C309.382 163.253 310.225 163.152 310.871 163.084C311.525 163.009 312 162.885 312.298 162.713C312.602 162.54 312.754 162.24 312.754 161.811V161.721C312.754 160.61 312.454 159.746 311.852 159.13C311.258 158.515 310.355 158.207 309.144 158.207C307.889 158.207 306.905 158.485 306.192 159.04C305.479 159.596 304.977 160.189 304.688 160.82L302.192 159.919C302.638 158.868 303.232 158.049 303.975 157.463C304.725 156.87 305.542 156.457 306.426 156.224C307.317 155.984 308.194 155.864 309.055 155.864C309.605 155.864 310.236 155.931 310.949 156.067C311.67 156.194 312.364 156.461 313.033 156.866C313.709 157.272 314.27 157.884 314.715 158.702C315.161 159.521 315.384 160.617 315.384 161.992V173.391H312.754V171.048H312.621C312.442 171.424 312.145 171.826 311.729 172.254C311.313 172.682 310.76 173.046 310.069 173.346C309.378 173.647 308.535 173.797 307.54 173.797ZM307.941 171.409C308.981 171.409 309.858 171.202 310.571 170.789C311.291 170.376 311.833 169.843 312.197 169.19C312.569 168.536 312.754 167.849 312.754 167.128V164.695C312.643 164.83 312.398 164.954 312.019 165.067C311.648 165.172 311.217 165.266 310.727 165.349C310.244 165.424 309.772 165.491 309.312 165.551C308.859 165.604 308.491 165.649 308.209 165.686C307.525 165.777 306.886 165.923 306.292 166.126C305.705 166.321 305.23 166.618 304.866 167.016C304.51 167.406 304.331 167.939 304.331 168.615C304.331 169.539 304.669 170.237 305.345 170.71C306.029 171.176 306.894 171.409 307.941 171.409Z" fill="white"/>
<path d="M326.018 173.752C324.592 173.752 323.333 173.388 322.241 172.659C321.149 171.923 320.295 170.887 319.678 169.55C319.062 168.206 318.753 166.618 318.753 164.785C318.753 162.968 319.062 161.391 319.678 160.054C320.295 158.717 321.153 157.685 322.252 156.956C323.351 156.228 324.621 155.864 326.062 155.864C327.177 155.864 328.057 156.052 328.703 156.427C329.357 156.795 329.854 157.216 330.196 157.689C330.545 158.154 330.816 158.537 331.009 158.838H331.232V150.322H333.862V173.391H331.321V170.733H331.009C330.816 171.048 330.541 171.446 330.185 171.927C329.828 172.4 329.32 172.824 328.658 173.2C327.997 173.568 327.117 173.752 326.018 173.752ZM326.374 171.364C327.429 171.364 328.32 171.086 329.048 170.53C329.776 169.967 330.33 169.19 330.709 168.198C331.087 167.2 331.277 166.047 331.277 164.74C331.277 163.449 331.091 162.318 330.72 161.35C330.348 160.373 329.799 159.615 329.071 159.074C328.343 158.526 327.444 158.252 326.374 158.252C325.26 158.252 324.332 158.541 323.589 159.119C322.854 159.69 322.3 160.467 321.929 161.451C321.565 162.427 321.383 163.524 321.383 164.74C321.383 165.972 321.569 167.091 321.94 168.097C322.319 169.096 322.876 169.892 323.611 170.485C324.354 171.071 325.275 171.364 326.374 171.364Z" fill="white"/>
<path d="M338.415 173.391V156.089H341.044V173.391H338.415ZM339.752 153.205C339.24 153.205 338.798 153.029 338.426 152.676C338.062 152.323 337.88 151.899 337.88 151.403C337.88 150.907 338.062 150.483 338.426 150.13C338.798 149.777 339.24 149.601 339.752 149.601C340.265 149.601 340.703 149.777 341.067 150.13C341.438 150.483 341.624 150.907 341.624 151.403C341.624 151.899 341.438 152.323 341.067 152.676C340.703 153.029 340.265 153.205 339.752 153.205Z" fill="white"/>
<path d="M347.862 162.983V173.391H345.233V156.089H347.773V158.793H347.996C348.397 157.914 349.006 157.208 349.823 156.675C350.64 156.134 351.695 155.864 352.988 155.864C354.146 155.864 355.16 156.104 356.029 156.585C356.898 157.058 357.574 157.779 358.057 158.748C358.54 159.709 358.781 160.925 358.781 162.397V173.391H356.152V162.577C356.152 161.218 355.803 160.159 355.105 159.401C354.406 158.635 353.448 158.252 352.23 158.252C351.391 158.252 350.64 158.436 349.979 158.804C349.326 159.172 348.809 159.709 348.431 160.415C348.052 161.121 347.862 161.977 347.862 162.983Z" fill="white"/>
<path d="M369.867 180.24C368.596 180.24 367.505 180.075 366.591 179.745C365.677 179.422 364.916 178.994 364.307 178.46C363.705 177.935 363.226 177.372 362.87 176.771L364.964 175.284C365.202 175.599 365.503 175.96 365.867 176.365C366.231 176.778 366.728 177.135 367.36 177.435C367.998 177.743 368.834 177.897 369.867 177.897C371.248 177.897 372.388 177.559 373.287 176.883C374.186 176.208 374.635 175.149 374.635 173.707V170.192H374.412C374.219 170.508 373.944 170.898 373.588 171.364C373.239 171.822 372.734 172.231 372.073 172.592C371.419 172.945 370.535 173.121 369.421 173.121C368.039 173.121 366.799 172.791 365.7 172.13C364.608 171.469 363.742 170.508 363.104 169.246C362.472 167.984 362.156 166.452 362.156 164.65C362.156 162.878 362.465 161.335 363.081 160.02C363.698 158.699 364.556 157.677 365.655 156.956C366.754 156.228 368.024 155.864 369.465 155.864C370.58 155.864 371.464 156.052 372.117 156.427C372.778 156.795 373.283 157.216 373.632 157.689C373.989 158.154 374.264 158.537 374.457 158.838H374.724V156.089H377.265V173.887C377.265 175.374 376.93 176.583 376.262 177.514C375.601 178.453 374.71 179.14 373.588 179.576C372.474 180.019 371.233 180.24 369.867 180.24ZM369.777 170.733C370.832 170.733 371.724 170.489 372.451 170.001C373.179 169.513 373.733 168.81 374.112 167.894C374.49 166.978 374.68 165.882 374.68 164.605C374.68 163.358 374.494 162.258 374.123 161.305C373.751 160.351 373.202 159.604 372.474 159.063C371.746 158.522 370.847 158.252 369.777 158.252C368.663 158.252 367.735 158.537 366.992 159.108C366.257 159.679 365.703 160.445 365.332 161.406C364.968 162.367 364.786 163.434 364.786 164.605C364.786 165.807 364.972 166.869 365.343 167.793C365.722 168.709 366.279 169.43 367.014 169.956C367.757 170.474 368.678 170.733 369.777 170.733Z" fill="white"/>
<path d="M397.09 156.089V158.342H388.221V156.089H397.09ZM390.806 151.944H393.435V168.435C393.435 169.186 393.543 169.749 393.758 170.125C393.981 170.493 394.264 170.74 394.605 170.868C394.954 170.988 395.322 171.048 395.708 171.048C395.998 171.048 396.236 171.033 396.421 171.003C396.607 170.966 396.756 170.936 396.867 170.913L397.402 173.301C397.224 173.369 396.975 173.436 396.655 173.504C396.336 173.579 395.931 173.617 395.441 173.617C394.698 173.617 393.97 173.455 393.257 173.132C392.551 172.809 391.965 172.318 391.497 171.657C391.036 170.996 390.806 170.162 390.806 169.156V151.944Z" fill="white"/>
<path d="M403.415 162.983V173.391H400.785V150.322H403.415V158.793H403.638C404.039 157.899 404.64 157.189 405.443 156.664C406.252 156.13 407.329 155.864 408.674 155.864C409.84 155.864 410.861 156.1 411.738 156.573C412.614 157.039 413.294 157.756 413.777 158.725C414.267 159.686 414.512 160.91 414.512 162.397V173.391H411.882V162.577C411.882 161.203 411.53 160.141 410.824 159.39C410.126 158.631 409.156 158.252 407.916 158.252C407.054 158.252 406.282 158.436 405.599 158.804C404.923 159.172 404.388 159.709 403.994 160.415C403.608 161.121 403.415 161.977 403.415 162.983Z" fill="white"/>
<path d="M425.87 173.752C424.221 173.752 422.799 173.384 421.603 172.648C420.414 171.904 419.497 170.868 418.851 169.539C418.212 168.202 417.893 166.648 417.893 164.875C417.893 163.103 418.212 161.541 418.851 160.189C419.497 158.83 420.396 157.771 421.547 157.013C422.706 156.247 424.058 155.864 425.603 155.864C426.494 155.864 427.374 156.014 428.243 156.314C429.112 156.615 429.903 157.103 430.617 157.779C431.33 158.447 431.898 159.333 432.321 160.437C432.745 161.541 432.956 162.9 432.956 164.515V165.641H419.764V163.343H430.282C430.282 162.367 430.089 161.496 429.703 160.73C429.324 159.964 428.782 159.36 428.076 158.916C427.378 158.473 426.554 158.252 425.603 158.252C424.555 158.252 423.649 158.515 422.884 159.04C422.127 159.559 421.543 160.234 421.135 161.068C420.726 161.902 420.522 162.795 420.522 163.749V165.281C420.522 166.588 420.745 167.695 421.191 168.604C421.644 169.505 422.271 170.192 423.074 170.665C423.876 171.131 424.808 171.364 425.87 171.364C426.561 171.364 427.185 171.266 427.742 171.071C428.306 170.868 428.793 170.568 429.202 170.17C429.61 169.764 429.926 169.261 430.149 168.66L432.689 169.381C432.422 170.252 431.972 171.018 431.341 171.679C430.709 172.333 429.929 172.843 429.001 173.211C428.073 173.572 427.029 173.752 425.87 173.752Z" fill="white"/>
<path d="M448.403 173.391L443.188 156.089H445.952L449.651 169.336H449.829L453.483 156.089H456.291L459.901 169.291H460.079L463.778 156.089H466.541L461.327 173.391H458.742L454.999 160.099H454.731L450.988 173.391H448.403Z" fill="white"/>
<path d="M474.426 173.797C473.342 173.797 472.358 173.59 471.474 173.177C470.59 172.757 469.888 172.152 469.368 171.364C468.848 170.568 468.588 169.607 468.588 168.48C468.588 167.489 468.781 166.685 469.167 166.069C469.554 165.446 470.07 164.958 470.716 164.605C471.362 164.252 472.075 163.989 472.855 163.817C473.643 163.636 474.434 163.494 475.228 163.388C476.268 163.253 477.111 163.152 477.758 163.084C478.411 163.009 478.887 162.885 479.184 162.713C479.488 162.54 479.641 162.24 479.641 161.811V161.721C479.641 160.61 479.34 159.746 478.738 159.13C478.144 158.515 477.241 158.207 476.031 158.207C474.775 158.207 473.791 158.485 473.078 159.04C472.365 159.596 471.864 160.189 471.574 160.82L469.078 159.919C469.524 158.868 470.118 158.049 470.861 157.463C471.611 156.87 472.428 156.457 473.312 156.224C474.203 155.984 475.08 155.864 475.942 155.864C476.491 155.864 477.123 155.931 477.836 156.067C478.556 156.194 479.251 156.461 479.919 156.866C480.595 157.272 481.156 157.884 481.602 158.702C482.047 159.521 482.27 160.617 482.27 161.992V173.391H479.641V171.048H479.507C479.329 171.424 479.032 171.826 478.616 172.254C478.2 172.682 477.646 173.046 476.955 173.346C476.265 173.647 475.422 173.797 474.426 173.797ZM474.827 171.409C475.867 171.409 476.744 171.202 477.457 170.789C478.177 170.376 478.72 169.843 479.084 169.19C479.455 168.536 479.641 167.849 479.641 167.128V164.695C479.529 164.83 479.284 164.954 478.905 165.067C478.534 165.172 478.103 165.266 477.613 165.349C477.13 165.424 476.658 165.491 476.198 165.551C475.745 165.604 475.377 165.649 475.095 165.686C474.411 165.777 473.773 165.923 473.178 166.126C472.592 166.321 472.116 166.618 471.752 167.016C471.396 167.406 471.217 167.939 471.217 168.615C471.217 169.539 471.555 170.237 472.231 170.71C472.915 171.176 473.78 171.409 474.827 171.409Z" fill="white"/>
<path d="M487.523 179.88C487.077 179.88 486.68 179.842 486.33 179.767C485.981 179.7 485.74 179.632 485.606 179.564L486.275 177.221C486.914 177.387 487.478 177.447 487.968 177.402C488.459 177.357 488.893 177.135 489.272 176.737C489.658 176.346 490.011 175.712 490.33 174.833L490.821 173.482L484.492 156.089H487.344L492.068 169.877H492.247L496.971 156.089H499.823L492.559 175.915C492.232 176.808 491.827 177.548 491.344 178.134C490.861 178.727 490.301 179.166 489.662 179.452C489.03 179.737 488.317 179.88 487.523 179.88Z" fill="white"/>
<path d="M518.484 156.089V158.342H509.259V156.089H518.484ZM512.022 173.391V153.701C512.022 152.71 512.252 151.884 512.712 151.223C513.173 150.562 513.771 150.066 514.506 149.736C515.242 149.405 516.018 149.24 516.835 149.24C517.481 149.24 518.009 149.293 518.417 149.398C518.826 149.503 519.13 149.601 519.331 149.691L518.573 151.989C518.439 151.944 518.254 151.887 518.016 151.82C517.786 151.752 517.481 151.718 517.102 151.718C516.233 151.718 515.606 151.94 515.219 152.383C514.841 152.826 514.651 153.476 514.651 154.332V173.391H512.022Z" fill="white"/>
<path d="M527.789 173.752C526.244 173.752 524.889 173.38 523.723 172.637C522.564 171.893 521.658 170.853 521.004 169.516C520.358 168.18 520.035 166.618 520.035 164.83C520.035 163.028 520.358 161.455 521.004 160.111C521.658 158.766 522.564 157.722 523.723 156.979C524.889 156.236 526.244 155.864 527.789 155.864C529.334 155.864 530.686 156.236 531.845 156.979C533.011 157.722 533.917 158.766 534.563 160.111C535.217 161.455 535.544 163.028 535.544 164.83C535.544 166.618 535.217 168.18 534.563 169.516C533.917 170.853 533.011 171.893 531.845 172.637C530.686 173.38 529.334 173.752 527.789 173.752ZM527.789 171.364C528.963 171.364 529.928 171.06 530.686 170.451C531.444 169.843 532.005 169.043 532.369 168.052C532.732 167.061 532.914 165.987 532.914 164.83C532.914 163.674 532.732 162.596 532.369 161.597C532.005 160.599 531.444 159.791 530.686 159.176C529.928 158.56 528.963 158.252 527.789 158.252C526.616 158.252 525.65 158.56 524.892 159.176C524.135 159.791 523.574 160.599 523.21 161.597C522.846 162.596 522.664 163.674 522.664 164.83C522.664 165.987 522.846 167.061 523.21 168.052C523.574 169.043 524.135 169.843 524.892 170.451C525.65 171.06 526.616 171.364 527.789 171.364Z" fill="white"/>
<path d="M538.93 173.391V156.089H541.471V158.702H541.649C541.961 157.846 542.525 157.152 543.342 156.619C544.159 156.085 545.08 155.819 546.105 155.819C546.299 155.819 546.54 155.822 546.83 155.83C547.119 155.837 547.338 155.849 547.487 155.864V158.567C547.398 158.545 547.194 158.511 546.874 158.466C546.562 158.413 546.232 158.387 545.883 158.387C545.051 158.387 544.308 158.564 543.654 158.916C543.008 159.262 542.496 159.743 542.117 160.358C541.745 160.967 541.56 161.661 541.56 162.442V173.391H538.93Z" fill="white"/>
<path d="M554.13 173.391L548.915 156.089H551.678L555.377 169.336H555.556L559.21 156.089H562.018L565.628 169.291H565.806L569.505 156.089H572.268L567.054 173.391H564.469L560.725 160.099H560.458L556.714 173.391H554.13Z" fill="white"/>
<path d="M580.153 173.797C579.069 173.797 578.084 173.59 577.201 173.177C576.317 172.757 575.615 172.152 575.095 171.364C574.575 170.568 574.315 169.607 574.315 168.48C574.315 167.489 574.508 166.685 574.894 166.069C575.28 165.446 575.797 164.958 576.443 164.605C577.089 164.252 577.802 163.989 578.582 163.817C579.369 163.636 580.16 163.494 580.955 163.388C581.995 163.253 582.838 163.152 583.484 163.084C584.138 163.009 584.613 162.885 584.911 162.713C585.215 162.54 585.367 162.24 585.367 161.811V161.721C585.367 160.61 585.067 159.746 584.465 159.13C583.871 158.515 582.968 158.207 581.757 158.207C580.502 158.207 579.518 158.485 578.805 159.04C578.092 159.596 577.59 160.189 577.301 160.82L574.805 159.919C575.251 158.868 575.845 158.049 576.588 157.463C577.338 156.87 578.155 156.457 579.039 156.224C579.93 155.984 580.807 155.864 581.668 155.864C582.218 155.864 582.849 155.931 583.562 156.067C584.283 156.194 584.977 156.461 585.646 156.866C586.322 157.272 586.883 157.884 587.328 158.702C587.774 159.521 587.997 160.617 587.997 161.992V173.391H585.367V171.048H585.234C585.055 171.424 584.758 171.826 584.342 172.254C583.926 172.682 583.373 173.046 582.682 173.346C581.991 173.647 581.148 173.797 580.153 173.797ZM580.554 171.409C581.594 171.409 582.471 171.202 583.184 170.789C583.904 170.376 584.446 169.843 584.81 169.19C585.182 168.536 585.367 167.849 585.367 167.128V164.695C585.256 164.83 585.011 164.954 584.632 165.067C584.261 165.172 583.83 165.266 583.34 165.349C582.857 165.424 582.385 165.491 581.925 165.551C581.472 165.604 581.104 165.649 580.822 165.686C580.138 165.777 579.499 165.923 578.905 166.126C578.318 166.321 577.843 166.618 577.479 167.016C577.123 167.406 576.944 167.939 576.944 168.615C576.944 169.539 577.282 170.237 577.958 170.71C578.641 171.176 579.507 171.409 580.554 171.409Z" fill="white"/>
<path d="M592.169 173.391V156.089H594.709V158.702H594.887C595.199 157.846 595.764 157.152 596.581 156.619C597.398 156.085 598.319 155.819 599.344 155.819C599.537 155.819 599.778 155.822 600.068 155.83C600.358 155.837 600.577 155.849 600.725 155.864V158.567C600.636 158.545 600.432 158.511 600.113 158.466C599.801 158.413 599.47 158.387 599.121 158.387C598.289 158.387 597.546 158.564 596.893 158.916C596.247 159.262 595.734 159.743 595.355 160.358C594.984 160.967 594.798 161.661 594.798 162.442V173.391H592.169Z" fill="white"/>
<path d="M609.156 173.752C607.73 173.752 606.471 173.388 605.379 172.659C604.287 171.923 603.433 170.887 602.817 169.55C602.2 168.206 601.892 166.618 601.892 164.785C601.892 162.968 602.2 161.391 602.817 160.054C603.433 158.717 604.291 157.685 605.39 156.956C606.49 156.228 607.76 155.864 609.201 155.864C610.315 155.864 611.195 156.052 611.841 156.427C612.495 156.795 612.993 157.216 613.334 157.689C613.683 158.154 613.955 158.537 614.148 158.838H614.371V150.322H617V173.391H614.46V170.733H614.148C613.955 171.048 613.68 171.446 613.323 171.927C612.967 172.4 612.458 172.824 611.797 173.2C611.136 173.568 610.256 173.752 609.156 173.752ZM609.513 171.364C610.567 171.364 611.459 171.086 612.187 170.53C612.915 169.967 613.468 169.19 613.847 168.198C614.226 167.2 614.415 166.047 614.415 164.74C614.415 163.449 614.229 162.318 613.858 161.35C613.487 160.373 612.937 159.615 612.209 159.074C611.481 158.526 610.582 158.252 609.513 158.252C608.399 158.252 607.47 158.541 606.727 159.119C605.992 159.69 605.439 160.467 605.067 161.451C604.703 162.427 604.521 163.524 604.521 164.74C604.521 165.972 604.707 167.091 605.078 168.097C605.457 169.096 606.014 169.892 606.75 170.485C607.492 171.071 608.413 171.364 609.513 171.364Z" fill="white"/>
</svg>
