<svg viewBox="0 0 208 60" fill="none" xmlns="http://www.w3.org/2000/svg">
<g clip-path="url(#clip0_234_2)">
<path d="M0 22.7232V0H22.7232L0 22.7232Z" fill="#110F10"/>
<path d="M60.0001 60.0001H37.2769L60.0001 37.2769V60.0001Z" fill="#110F10"/>
<path d="M11.6304 60H0V48.3696L48.3696 0H60V11.6304L11.6304 60Z" fill="#110F10"/>
</g>
<path d="M88.932 20.674L83.718 30.948H88.954V33.5H80.528V30.992L85.72 20.74H80.528V18.1H88.932V20.674ZM90.1121 33.5V18.1H98.0101V20.74H93.1261V24.414H97.4821V26.966H93.1261V30.948H98.0981V33.5H90.1121ZM106.226 33.5L102.112 24.986L102.002 25.03L102.134 27.626V33.5H99.3615V18.1H101.584L105.632 26.944L105.742 26.9L105.5 24.194V18.1H108.272V33.5H106.226ZM109.943 33.5V18.1H112.957V33.5H109.943ZM117.124 20.74H113.802V18.1H123.438V20.74H120.116V33.5H117.124V20.74ZM127.288 33.5H124.274V18.1H127.288V24.304H130.808V18.1H133.822V33.5H130.808V27.12H127.288V33.5ZM135.5 33.5V18.1H143.398V20.74H138.514V24.414H142.87V26.966H138.514V30.948H143.486V33.5H135.5ZM144.749 18.1H150.601C151.525 18.408 152.31 18.98 152.955 19.816C153.615 20.6373 153.945 21.6493 153.945 22.852C153.945 24.8173 153.168 26.262 151.613 27.186L153.835 33.5H150.755L148.885 27.89H147.719V33.5H144.749V18.1ZM147.719 20.74V25.426H149.611C149.861 25.3673 150.132 25.118 150.425 24.678C150.733 24.2233 150.887 23.6953 150.887 23.094C150.887 22.4927 150.755 21.9647 150.491 21.51C150.242 21.0553 149.993 20.7987 149.743 20.74H147.719ZM155.095 33.5V18.1H162.993V20.74H158.109V24.414H162.465V26.966H158.109V30.948H163.081V33.5H155.095ZM168.15 30.948H169.998C170.321 30.596 170.548 30.244 170.68 29.892C170.827 29.5253 170.9 28.99 170.9 28.286V18.1H173.914V27.186C173.914 27.934 173.892 28.5207 173.848 28.946C173.819 29.3567 173.731 29.8627 173.584 30.464C173.335 31.5347 172.645 32.5467 171.516 33.5H166.632C165.503 32.576 164.813 31.564 164.564 30.464C164.344 29.5693 164.234 28.4767 164.234 27.186V18.1H167.248V28.286C167.248 28.99 167.314 29.5253 167.446 29.892C167.593 30.244 167.827 30.596 168.15 30.948ZM181.094 26.46H181.006H181.094L182.26 21.642L183.206 18.1H185.956L186.946 33.5H184.064L183.646 25.096H183.536L181.952 31.3H180.148L178.564 25.096H178.454L178.036 33.5H175.154L176.144 18.1H178.894L179.84 21.642L181.006 26.46H181.094ZM188.103 30.244H191.271V33.5H188.103V30.244ZM199.314 33.5L198.852 31.058H195.376L194.914 33.5H191.922L194.892 18.1H199.446L202.262 33.5H199.314ZM197.07 20.96L196.212 26.086L195.728 28.704H198.478L197.972 26.086L197.114 20.96H197.07ZM203.104 33.5V18.1H206.118V33.5H203.104Z" fill="black"/>
<path d="M80.9835 48.2907H80L82.8447 40.8488H83.8131L86.6579 48.2907H85.6743L83.3592 42.0262H83.2987L80.9835 48.2907ZM81.3467 45.3837H85.3111V46.1831H81.3467V45.3837Z" fill="black"/>
<path d="M88.5897 40.8488V48.2907H87.6515V40.8488H88.5897Z" fill="black"/>
<path d="M93.8124 40.8488V48.2907H92.9196V40.8488H93.8124Z" fill="black"/>
<path d="M97.6706 48.407C97.1107 48.407 96.6278 48.2883 96.2218 48.0509C95.8183 47.811 95.5068 47.4767 95.2874 47.048C95.0705 46.6168 94.9621 46.1153 94.9621 45.5436C94.9621 44.9719 95.0705 44.468 95.2874 44.032C95.5068 43.5935 95.812 43.2519 96.2029 43.0073C96.5963 42.7602 97.0553 42.6366 97.5798 42.6366C97.8825 42.6366 98.1813 42.6851 98.4764 42.782C98.7714 42.8789 99.04 43.0363 99.2821 43.2544C99.5242 43.47 99.7171 43.7558 99.8609 44.1119C100.005 44.468 100.077 44.9065 100.077 45.4273V45.7907H95.5976V45.0494H99.1686C99.1686 44.7345 99.1031 44.4535 98.9719 44.2064C98.8433 43.9593 98.6592 43.7643 98.4196 43.6214C98.1826 43.4784 97.9026 43.407 97.5798 43.407C97.2242 43.407 96.9166 43.4918 96.6568 43.6613C96.3996 43.8285 96.2016 44.0465 96.0629 44.3154C95.9242 44.5843 95.8548 44.8726 95.8548 45.1802V45.6744C95.8548 46.0959 95.9305 46.4532 96.0818 46.7464C96.2356 47.0371 96.4487 47.2587 96.7211 47.4113C96.9935 47.5615 97.31 47.6366 97.6706 47.6366C97.9052 47.6366 98.117 47.6051 98.3061 47.5421C98.4978 47.4767 98.663 47.3798 98.8017 47.2515C98.9404 47.1206 99.0476 46.9583 99.1232 46.7645L99.9857 46.9971C99.8949 47.2781 99.7424 47.5252 99.528 47.7384C99.3136 47.9491 99.0488 48.1139 98.7336 48.2326C98.4184 48.3488 98.064 48.407 97.6706 48.407Z" fill="black"/>
<path d="M102.931 48.4215C102.563 48.4215 102.229 48.3549 101.929 48.2217C101.629 48.086 101.39 47.891 101.214 47.6366C101.037 47.3798 100.949 47.0698 100.949 46.7064C100.949 46.3866 101.015 46.1274 101.146 45.9288C101.277 45.7277 101.452 45.5703 101.672 45.4564C101.891 45.3425 102.133 45.2578 102.398 45.202C102.665 45.1439 102.934 45.0979 103.204 45.064C103.557 45.0203 103.843 44.9876 104.062 44.9658C104.284 44.9416 104.446 44.9016 104.547 44.8459C104.65 44.7902 104.702 44.6933 104.702 44.5552V44.5262C104.702 44.1676 104.6 43.8891 104.395 43.6904C104.194 43.4918 103.887 43.3924 103.476 43.3924C103.05 43.3924 102.716 43.4821 102.474 43.6613C102.232 43.8406 102.061 44.032 101.963 44.2355L101.116 43.9448C101.267 43.6056 101.469 43.3416 101.721 43.1526C101.976 42.9612 102.253 42.828 102.553 42.7529C102.856 42.6754 103.153 42.6366 103.446 42.6366C103.632 42.6366 103.847 42.6584 104.089 42.702C104.334 42.7432 104.569 42.8292 104.796 42.96C105.026 43.0908 105.216 43.2883 105.368 43.5523C105.519 43.8164 105.595 44.1701 105.595 44.6134V48.2907H104.702V47.5349H104.656C104.596 47.656 104.495 47.7856 104.354 47.9237C104.213 48.0618 104.025 48.1793 103.79 48.2762C103.556 48.3731 103.269 48.4215 102.931 48.4215ZM103.068 47.6512C103.421 47.6512 103.718 47.5845 103.96 47.4513C104.205 47.3181 104.389 47.1461 104.513 46.9353C104.639 46.7246 104.702 46.5029 104.702 46.2703V45.4855C104.664 45.5291 104.581 45.569 104.452 45.6054C104.326 45.6393 104.18 45.6696 104.013 45.6962C103.849 45.7204 103.689 45.7422 103.533 45.7616C103.379 45.7786 103.254 45.7931 103.158 45.8052C102.926 45.8343 102.709 45.8815 102.508 45.9469C102.308 46.0099 102.147 46.1056 102.023 46.234C101.902 46.36 101.842 46.532 101.842 46.75C101.842 47.048 101.957 47.2733 102.186 47.4259C102.418 47.5761 102.712 47.6512 103.068 47.6512Z" fill="black"/>
<path d="M109.205 48.407C108.721 48.407 108.293 48.2895 107.923 48.0545C107.552 47.8171 107.262 47.4828 107.053 47.0516C106.843 46.618 106.739 46.1056 106.739 45.5145C106.739 44.9283 106.843 44.4196 107.053 43.9884C107.262 43.5572 107.553 43.2241 107.926 42.9891C108.3 42.7541 108.731 42.6366 109.22 42.6366C109.598 42.6366 109.897 42.6972 110.117 42.8183C110.339 42.937 110.508 43.0727 110.624 43.2253C110.742 43.3755 110.834 43.499 110.9 43.5959H110.975V40.8488H111.868V48.2907H111.006V47.4331H110.9C110.834 47.5349 110.741 47.6633 110.62 47.8183C110.499 47.9709 110.326 48.1078 110.102 48.2289C109.877 48.3476 109.578 48.407 109.205 48.407ZM109.326 47.6366C109.684 47.6366 109.987 47.547 110.234 47.3677C110.481 47.186 110.669 46.9353 110.798 46.6156C110.926 46.2934 110.991 45.9215 110.991 45.5C110.991 45.0833 110.927 44.7187 110.801 44.4062C110.675 44.0913 110.489 43.8467 110.242 43.6722C109.994 43.4954 109.689 43.407 109.326 43.407C108.948 43.407 108.633 43.5002 108.38 43.6868C108.131 43.8709 107.943 44.1216 107.817 44.439C107.693 44.7539 107.631 45.1076 107.631 45.5C107.631 45.8973 107.694 46.2582 107.82 46.5828C107.949 46.905 108.138 47.1618 108.388 47.3532C108.64 47.5422 108.953 47.6366 109.326 47.6366Z" fill="black"/>
<path d="M113.414 48.2907V42.7093H114.307V48.2907H113.414ZM113.868 41.7791C113.694 41.7791 113.544 41.7221 113.418 41.6083C113.294 41.4944 113.233 41.3576 113.233 41.1977C113.233 41.0378 113.294 40.9009 113.418 40.7871C113.544 40.6732 113.694 40.6163 113.868 40.6163C114.042 40.6163 114.191 40.6732 114.314 40.7871C114.441 40.9009 114.504 41.0378 114.504 41.1977C114.504 41.3576 114.441 41.4944 114.314 41.6083C114.191 41.7221 114.042 41.7791 113.868 41.7791Z" fill="black"/>
<path d="M116.622 44.9331V48.2907H115.729V42.7093H116.591V43.5814H116.667C116.803 43.298 117.01 43.0703 117.288 42.8983C117.565 42.7238 117.923 42.6366 118.362 42.6366C118.755 42.6366 119.1 42.7141 119.395 42.8692C119.69 43.0218 119.919 43.2544 120.083 43.5669C120.247 43.8769 120.329 44.2694 120.329 44.7442V48.2907H119.436V44.8023C119.436 44.3639 119.318 44.0223 119.081 43.7776C118.844 43.5305 118.518 43.407 118.105 43.407C117.82 43.407 117.565 43.4663 117.34 43.585C117.119 43.7037 116.943 43.8769 116.815 44.1047C116.686 44.3324 116.622 44.6085 116.622 44.9331Z" fill="black"/>
<path d="M124.093 50.5C123.661 50.5 123.291 50.4467 122.98 50.3401C122.67 50.2359 122.412 50.0979 122.205 49.9259C122.001 49.7563 121.838 49.5746 121.717 49.3808L122.428 48.9012C122.509 49.0029 122.611 49.1192 122.735 49.25C122.858 49.3832 123.027 49.4983 123.241 49.5952C123.458 49.6945 123.742 49.7442 124.093 49.7442C124.562 49.7442 124.949 49.6352 125.254 49.4172C125.559 49.1991 125.712 48.8576 125.712 48.3924V47.2587H125.636C125.57 47.3605 125.477 47.4864 125.356 47.6366C125.238 47.7844 125.066 47.9164 124.842 48.0327C124.62 48.1466 124.32 48.2035 123.941 48.2035C123.472 48.2035 123.051 48.0969 122.678 47.8837C122.307 47.6705 122.013 47.3605 121.796 46.9535C121.582 46.5465 121.475 46.0523 121.475 45.4709C121.475 44.8992 121.58 44.4014 121.789 43.9775C121.998 43.5511 122.289 43.2217 122.663 42.9891C123.036 42.7541 123.467 42.6366 123.956 42.6366C124.335 42.6366 124.635 42.6972 124.857 42.8183C125.081 42.937 125.253 43.0727 125.371 43.2253C125.492 43.3755 125.586 43.499 125.651 43.5959H125.742V42.7093H126.604V48.4506C126.604 48.9302 126.491 49.3203 126.264 49.6206C126.04 49.9234 125.737 50.1451 125.356 50.2856C124.978 50.4285 124.557 50.5 124.093 50.5ZM124.062 47.4331C124.42 47.4331 124.723 47.3544 124.97 47.1969C125.217 47.0395 125.405 46.813 125.534 46.5174C125.663 46.2219 125.727 45.8682 125.727 45.4564C125.727 45.0543 125.664 44.6994 125.538 44.3917C125.412 44.0841 125.225 43.843 124.978 43.6686C124.731 43.4942 124.426 43.407 124.062 43.407C123.684 43.407 123.369 43.499 123.117 43.6831C122.867 43.8672 122.679 44.1143 122.553 44.4244C122.429 44.7345 122.368 45.0785 122.368 45.4564C122.368 45.844 122.431 46.1868 122.557 46.4847C122.685 46.7803 122.875 47.0128 123.124 47.1824C123.376 47.3496 123.689 47.4331 124.062 47.4331Z" fill="black"/>
<path d="M133.336 42.7093V43.436H130.324V42.7093H133.336ZM131.202 41.3721H132.095V46.6919C132.095 46.9341 132.131 47.1158 132.204 47.2369C132.28 47.3556 132.376 47.4356 132.492 47.4767C132.61 47.5155 132.735 47.5349 132.866 47.5349C132.965 47.5349 133.046 47.53 133.109 47.5203C133.172 47.5082 133.222 47.4985 133.26 47.4913L133.441 48.2616C133.381 48.2834 133.296 48.3052 133.188 48.327C133.08 48.3513 132.942 48.3634 132.776 48.3634C132.523 48.3634 132.276 48.3113 132.034 48.2071C131.795 48.103 131.595 47.9443 131.437 47.7311C131.28 47.5179 131.202 47.249 131.202 46.9244V41.3721Z" fill="black"/>
<path d="M135.483 44.9331V48.2907H134.59V40.8488H135.483V43.5814H135.559C135.695 43.2931 135.899 43.0642 136.171 42.8946C136.446 42.7226 136.812 42.6366 137.269 42.6366C137.664 42.6366 138.011 42.7129 138.309 42.8656C138.606 43.0157 138.837 43.2471 139.001 43.5596C139.168 43.8697 139.251 44.2645 139.251 44.7442V48.2907H138.358V44.8023C138.358 44.359 138.238 44.0162 137.999 43.774C137.762 43.5293 137.432 43.407 137.011 43.407C136.719 43.407 136.456 43.4663 136.224 43.585C135.995 43.7037 135.813 43.8769 135.68 44.1047C135.549 44.3324 135.483 44.6085 135.483 44.9331Z" fill="black"/>
<path d="M143.107 48.407C142.547 48.407 142.064 48.2883 141.658 48.0509C141.255 47.811 140.943 47.4767 140.724 47.048C140.507 46.6168 140.399 46.1153 140.399 45.5436C140.399 44.9719 140.507 44.468 140.724 44.032C140.943 43.5935 141.248 43.2519 141.639 43.0073C142.033 42.7602 142.492 42.6366 143.016 42.6366C143.319 42.6366 143.618 42.6851 143.913 42.782C144.208 42.8789 144.477 43.0363 144.719 43.2544C144.961 43.47 145.154 43.7558 145.297 44.1119C145.441 44.468 145.513 44.9065 145.513 45.4273V45.7907H141.034V45.0494H144.605C144.605 44.7345 144.54 44.4535 144.408 44.2064C144.28 43.9593 144.096 43.7643 143.856 43.6214C143.619 43.4784 143.339 43.407 143.016 43.407C142.661 43.407 142.353 43.4918 142.093 43.6613C141.836 43.8285 141.638 44.0465 141.499 44.3154C141.361 44.5843 141.291 44.8726 141.291 45.1802V45.6744C141.291 46.0959 141.367 46.4532 141.518 46.7464C141.672 47.0371 141.885 47.2587 142.158 47.4113C142.43 47.5615 142.746 47.6366 143.107 47.6366C143.342 47.6366 143.553 47.6051 143.743 47.5421C143.934 47.4767 144.099 47.3798 144.238 47.2515C144.377 47.1206 144.484 46.9583 144.56 46.7645L145.422 46.9971C145.331 47.2781 145.179 47.5252 144.965 47.7384C144.75 47.9491 144.485 48.1139 144.17 48.2326C143.855 48.3488 143.501 48.407 143.107 48.407Z" fill="black"/>
<path d="M150.757 48.2907L148.987 42.7093H149.925L151.181 46.9826H151.242L152.482 42.7093H153.436L154.661 46.968H154.722L155.978 42.7093H156.916L155.146 48.2907H154.268L152.997 44.0029H152.906L151.635 48.2907H150.757Z" fill="black"/>
<path d="M159.593 48.4215C159.225 48.4215 158.891 48.3549 158.591 48.2217C158.29 48.086 158.052 47.891 157.876 47.6366C157.699 47.3798 157.611 47.0698 157.611 46.7064C157.611 46.3866 157.676 46.1274 157.807 45.9288C157.939 45.7277 158.114 45.5703 158.333 45.4564C158.553 45.3425 158.795 45.2578 159.06 45.202C159.327 45.1439 159.596 45.0979 159.865 45.064C160.218 45.0203 160.505 44.9876 160.724 44.9658C160.946 44.9416 161.107 44.9016 161.208 44.8459C161.312 44.7902 161.363 44.6933 161.363 44.5552V44.5262C161.363 44.1676 161.261 43.8891 161.057 43.6904C160.855 43.4918 160.549 43.3924 160.138 43.3924C159.712 43.3924 159.377 43.4821 159.135 43.6613C158.893 43.8406 158.723 44.032 158.625 44.2355L157.777 43.9448C157.929 43.6056 158.13 43.3416 158.382 43.1526C158.637 42.9612 158.915 42.828 159.215 42.7529C159.517 42.6754 159.815 42.6366 160.107 42.6366C160.294 42.6366 160.508 42.6584 160.751 42.702C160.995 42.7432 161.231 42.8292 161.458 42.96C161.687 43.0908 161.878 43.2883 162.029 43.5523C162.18 43.8164 162.256 44.1701 162.256 44.6134V48.2907H161.363V47.5349H161.318C161.257 47.656 161.157 47.7856 161.015 47.9237C160.874 48.0618 160.686 48.1793 160.452 48.2762C160.217 48.3731 159.931 48.4215 159.593 48.4215ZM159.729 47.6512C160.082 47.6512 160.38 47.5845 160.622 47.4513C160.867 47.3181 161.051 47.1461 161.174 46.9353C161.3 46.7246 161.363 46.5029 161.363 46.2703V45.4855C161.326 45.5291 161.242 45.569 161.114 45.6054C160.988 45.6393 160.841 45.6696 160.675 45.6962C160.511 45.7204 160.351 45.7422 160.194 45.7616C160.041 45.7786 159.916 45.7931 159.82 45.8052C159.588 45.8343 159.371 45.8815 159.169 45.9469C158.97 46.0099 158.809 46.1056 158.685 46.234C158.564 46.36 158.504 46.532 158.504 46.75C158.504 47.048 158.618 47.2733 158.848 47.4259C159.08 47.5761 159.374 47.6512 159.729 47.6512Z" fill="black"/>
<path d="M164.04 50.3837C163.888 50.3837 163.753 50.3716 163.635 50.3474C163.516 50.3256 163.434 50.3038 163.389 50.282L163.616 49.5262C163.833 49.5795 164.024 49.5988 164.191 49.5843C164.357 49.5698 164.505 49.4983 164.633 49.3699C164.765 49.2439 164.884 49.0392 164.993 48.7558L165.159 48.3198L163.011 42.7093H163.979L165.583 47.157H165.643L167.247 42.7093H168.216L165.749 49.1047C165.638 49.3929 165.501 49.6315 165.337 49.8205C165.173 50.0119 164.983 50.1536 164.766 50.2456C164.551 50.3377 164.309 50.3837 164.04 50.3837Z" fill="black"/>
<path d="M174.552 42.7093V43.436H171.419V42.7093H174.552ZM172.358 48.2907V41.939C172.358 41.6192 172.436 41.3527 172.592 41.1395C172.748 40.9264 172.951 40.7665 173.201 40.6599C173.451 40.5533 173.714 40.5 173.992 40.5C174.211 40.5 174.39 40.517 174.529 40.5509C174.668 40.5848 174.771 40.6163 174.839 40.6453L174.582 41.3866C174.536 41.3721 174.473 41.3539 174.393 41.3321C174.315 41.3103 174.211 41.2994 174.082 41.2994C173.787 41.2994 173.574 41.3709 173.443 41.5138C173.315 41.6567 173.25 41.8663 173.25 42.1424V48.2907H172.358Z" fill="black"/>
<path d="M177.711 48.407C177.186 48.407 176.726 48.2871 176.33 48.0472C175.937 47.8074 175.629 47.4719 175.407 47.0407C175.188 46.6095 175.078 46.1056 175.078 45.5291C175.078 44.9477 175.188 44.4402 175.407 44.0065C175.629 43.5729 175.937 43.2362 176.33 42.9964C176.726 42.7565 177.186 42.6366 177.711 42.6366C178.236 42.6366 178.694 42.7565 179.088 42.9964C179.484 43.2362 179.792 43.5729 180.011 44.0065C180.233 44.4402 180.344 44.9477 180.344 45.5291C180.344 46.1056 180.233 46.6095 180.011 47.0407C179.792 47.4719 179.484 47.8074 179.088 48.0472C178.694 48.2871 178.236 48.407 177.711 48.407ZM177.711 47.6366C178.109 47.6366 178.437 47.5385 178.694 47.3423C178.952 47.1461 179.142 46.8881 179.266 46.5683C179.389 46.2485 179.451 45.9021 179.451 45.5291C179.451 45.156 179.389 44.8084 179.266 44.4862C179.142 44.164 178.952 43.9036 178.694 43.7049C178.437 43.5063 178.109 43.407 177.711 43.407C177.312 43.407 176.985 43.5063 176.727 43.7049C176.47 43.9036 176.28 44.164 176.156 44.4862C176.033 44.8084 175.971 45.156 175.971 45.5291C175.971 45.9021 176.033 46.2485 176.156 46.5683C176.28 46.8881 176.47 47.1461 176.727 47.3423C176.985 47.5385 177.312 47.6366 177.711 47.6366Z" fill="black"/>
<path d="M181.494 48.2907V42.7093H182.356V43.5523H182.417C182.522 43.2762 182.714 43.0521 182.992 42.8801C183.269 42.7081 183.582 42.6221 183.93 42.6221C183.995 42.6221 184.077 42.6233 184.176 42.6257C184.274 42.6281 184.348 42.6318 184.399 42.6366V43.5087C184.369 43.5015 184.299 43.4906 184.191 43.476C184.085 43.4591 183.973 43.4506 183.854 43.4506C183.572 43.4506 183.319 43.5075 183.097 43.6214C182.878 43.7328 182.704 43.8878 182.575 44.0865C182.449 44.2827 182.386 44.5068 182.386 44.7587V48.2907H181.494Z" fill="black"/>
<path d="M186.654 48.2907L184.884 42.7093H185.822L187.078 46.9826H187.138L188.379 42.7093H189.332L190.558 46.968H190.619L191.874 42.7093H192.813L191.042 48.2907H190.165L188.894 44.0029H188.803L187.532 48.2907H186.654Z" fill="black"/>
<path d="M195.49 48.4215C195.121 48.4215 194.787 48.3549 194.487 48.2217C194.187 48.086 193.949 47.891 193.772 47.6366C193.596 47.3798 193.507 47.0698 193.507 46.7064C193.507 46.3866 193.573 46.1274 193.704 45.9288C193.835 45.7277 194.011 45.5703 194.23 45.4564C194.449 45.3425 194.691 45.2578 194.956 45.202C195.224 45.1439 195.492 45.0979 195.762 45.064C196.115 45.0203 196.401 44.9876 196.621 44.9658C196.843 44.9416 197.004 44.9016 197.105 44.8459C197.208 44.7902 197.26 44.6933 197.26 44.5552V44.5262C197.26 44.1676 197.158 43.8891 196.954 43.6904C196.752 43.4918 196.445 43.3924 196.034 43.3924C195.608 43.3924 195.274 43.4821 195.032 43.6613C194.79 43.8406 194.62 44.032 194.521 44.2355L193.674 43.9448C193.825 43.6056 194.027 43.3416 194.279 43.1526C194.534 42.9612 194.811 42.828 195.111 42.7529C195.414 42.6754 195.712 42.6366 196.004 42.6366C196.191 42.6366 196.405 42.6584 196.647 42.702C196.892 42.7432 197.128 42.8292 197.355 42.96C197.584 43.0908 197.774 43.2883 197.926 43.5523C198.077 43.8164 198.153 44.1701 198.153 44.6134V48.2907H197.26V47.5349H197.215C197.154 47.656 197.053 47.7856 196.912 47.9237C196.771 48.0618 196.583 48.1793 196.348 48.2762C196.114 48.3731 195.828 48.4215 195.49 48.4215ZM195.626 47.6512C195.979 47.6512 196.276 47.5845 196.519 47.4513C196.763 47.3181 196.947 47.1461 197.071 46.9353C197.197 46.7246 197.26 46.5029 197.26 46.2703V45.4855C197.222 45.5291 197.139 45.569 197.01 45.6054C196.884 45.6393 196.738 45.6696 196.572 45.6962C196.408 45.7204 196.247 45.7422 196.091 45.7616C195.937 45.7786 195.812 45.7931 195.717 45.8052C195.485 45.8343 195.268 45.8815 195.066 45.9469C194.867 46.0099 194.705 46.1056 194.582 46.234C194.461 46.36 194.4 46.532 194.4 46.75C194.4 47.048 194.515 47.2733 194.744 47.4259C194.976 47.5761 195.27 47.6512 195.626 47.6512Z" fill="black"/>
<path d="M199.569 48.2907V42.7093H200.432V43.5523H200.492C200.598 43.2762 200.79 43.0521 201.067 42.8801C201.345 42.7081 201.657 42.6221 202.005 42.6221C202.071 42.6221 202.153 42.6233 202.251 42.6257C202.35 42.6281 202.424 42.6318 202.474 42.6366V43.5087C202.444 43.5015 202.375 43.4906 202.266 43.476C202.16 43.4591 202.048 43.4506 201.93 43.4506C201.647 43.4506 201.395 43.5075 201.173 43.6214C200.954 43.7328 200.78 43.8878 200.651 44.0865C200.525 44.2827 200.462 44.5068 200.462 44.7587V48.2907H199.569Z" fill="black"/>
<path d="M205.337 48.407C204.853 48.407 204.425 48.2895 204.054 48.0545C203.684 47.8171 203.394 47.4828 203.184 47.0516C202.975 46.618 202.87 46.1056 202.87 45.5145C202.87 44.9283 202.975 44.4196 203.184 43.9884C203.394 43.5572 203.685 43.2241 204.058 42.9891C204.432 42.7541 204.863 42.6366 205.352 42.6366C205.73 42.6366 206.029 42.6972 206.249 42.8183C206.47 42.937 206.639 43.0727 206.755 43.2253C206.874 43.3755 206.966 43.499 207.032 43.5959H207.107V40.8488H208V48.2907H207.138V47.4331H207.032C206.966 47.5349 206.873 47.6633 206.752 47.8183C206.631 47.9709 206.458 48.1078 206.233 48.2289C206.009 48.3476 205.71 48.407 205.337 48.407ZM205.458 47.6366C205.816 47.6366 206.119 47.547 206.366 47.3677C206.613 47.186 206.801 46.9353 206.929 46.6156C207.058 46.2934 207.122 45.9215 207.122 45.5C207.122 45.0833 207.059 44.7187 206.933 44.4062C206.807 44.0913 206.621 43.8467 206.373 43.6722C206.126 43.4954 205.821 43.407 205.458 43.407C205.08 43.407 204.764 43.5002 204.512 43.6868C204.263 43.8709 204.075 44.1216 203.949 44.439C203.825 44.7539 203.763 45.1076 203.763 45.5C203.763 45.8973 203.826 46.2582 203.952 46.5828C204.081 46.905 204.27 47.1618 204.52 47.3532C204.772 47.5422 205.085 47.6366 205.458 47.6366Z" fill="black"/>
<defs>
<clipPath id="clip0_234_2">
<rect width="60" height="60" fill="white"/>
</clipPath>
</defs>
</svg>
