<svg width="32" height="32" viewBox="0 0 32 32" fill="none" xmlns="http://www.w3.org/2000/svg">
<path d="M31.5 16C31.5 24.5604 24.5604 31.5 16 31.5C7.43959 31.5 0.5 24.5604 0.5 16C0.5 7.43959 7.43959 0.5 16 0.5C24.5604 0.5 31.5 7.43959 31.5 16Z" stroke="#E9EBED"/>
<path d="M18.0248 24.0625H13.9748C10.2698 24.0625 8.69482 22.48 8.69482 18.7825V15.415C8.69482 15.1075 8.94982 14.8525 9.25732 14.8525C9.56482 14.8525 9.81982 15.1075 9.81982 15.415V18.7825C9.81982 21.85 10.9073 22.9375 13.9748 22.9375H18.0173C21.0848 22.9375 22.1723 21.85 22.1723 18.7825V15.415C22.1723 15.1075 22.4273 14.8525 22.7348 14.8525C23.0423 14.8525 23.2973 15.1075 23.2973 15.415V18.7825C23.3048 22.48 21.7223 24.0625 18.0248 24.0625Z" fill="#09080D"/>
<path d="M15.9998 16.5625C15.1748 16.5625 14.4248 16.24 13.8923 15.6475C13.3598 15.055 13.1123 14.2825 13.1948 13.4575L13.6973 8.4475C13.7273 8.1625 13.9673 7.9375 14.2598 7.9375H17.7623C18.0548 7.9375 18.2948 8.155 18.3248 8.4475L18.8273 13.4575C18.9098 14.2825 18.6623 15.055 18.1298 15.6475C17.5748 16.24 16.8248 16.5625 15.9998 16.5625ZM14.7623 9.0625L14.3123 13.57C14.2598 14.0725 14.4098 14.545 14.7248 14.89C15.3623 15.595 16.6373 15.595 17.2748 14.89C17.5898 14.5375 17.7398 14.065 17.6873 13.57L17.2373 9.0625H14.7623Z" fill="#09080D"/>
<path d="M20.7325 16.5625C19.21 16.5625 17.8525 15.3325 17.695 13.8175L17.17 8.56C17.155 8.4025 17.2075 8.245 17.3125 8.125C17.4175 8.005 17.5675 7.9375 17.7325 7.9375H20.02C22.225 7.9375 23.2525 8.86 23.56 11.125L23.77 13.21C23.86 14.095 23.59 14.935 23.0125 15.5725C22.435 16.21 21.625 16.5625 20.7325 16.5625ZM18.355 9.0625L18.82 13.705C18.9175 14.6425 19.7875 15.4375 20.7325 15.4375C21.3025 15.4375 21.8125 15.22 22.18 14.8225C22.54 14.425 22.705 13.8925 22.6525 13.3225L22.4425 11.26C22.21 9.565 21.6625 9.0625 20.02 9.0625H18.355V9.0625Z" fill="#09080D"/>
<path d="M11.2298 16.5625C10.3373 16.5625 9.52727 16.21 8.94977 15.5725C8.37227 14.935 8.10227 14.095 8.19227 13.21L8.39477 11.1475C8.70977 8.86 9.73727 7.9375 11.9423 7.9375H14.2298C14.3873 7.9375 14.5373 8.005 14.6498 8.125C14.7623 8.245 14.8073 8.4025 14.7923 8.56L14.2673 13.8175C14.1098 15.3325 12.7523 16.5625 11.2298 16.5625ZM11.9423 9.0625C10.2998 9.0625 9.75227 9.5575 9.51227 11.275L9.30977 13.3225C9.24977 13.8925 9.42227 14.425 9.78227 14.8225C10.1423 15.22 10.6523 15.4375 11.2298 15.4375C12.1748 15.4375 13.0523 14.6425 13.1423 13.705L13.6073 9.0625H11.9423V9.0625Z" fill="#09080D"/>
<path d="M17.875 24.0625H14.125C13.8175 24.0625 13.5625 23.8075 13.5625 23.5V21.625C13.5625 20.05 14.425 19.1875 16 19.1875C17.575 19.1875 18.4375 20.05 18.4375 21.625V23.5C18.4375 23.8075 18.1825 24.0625 17.875 24.0625ZM14.6875 22.9375H17.3125V21.625C17.3125 20.68 16.945 20.3125 16 20.3125C15.055 20.3125 14.6875 20.68 14.6875 21.625V22.9375Z" fill="#09080D"/>
</svg>
